<?xml version="1.0" encoding="UTF-8"?>
<svg fill="#fff" viewBox="0 0 142 33" xmlns="http://www.w3.org/2000/svg">
<path d="M.876 6.737v25.871H4.59V13.875h.24l7.63 18.696h3.082l7.63-18.683h.24v18.721h3.714V6.737h-4.737l-8.236 20.111h-.303L5.614 6.737H.876zM40.861 33c4.232 0 7.226-2.084 8.085-5.242l-3.575-.644c-.682 1.832-2.324 2.767-4.472 2.767-3.234 0-5.407-2.097-5.508-5.836h13.795v-1.339c0-7.011-4.194-9.752-8.59-9.752-5.407 0-8.969 4.118-8.969 10.081 0 6.026 3.512 9.967 9.234 9.967zm-5.457-11.786c.152-2.754 2.148-5.141 5.217-5.141 2.931 0 4.851 2.173 4.864 5.141H35.404zm32.513-3.272c-.783-3.019-3.145-4.99-7.339-4.99-4.383 0-7.491 2.312-7.491 5.748 0 2.754 1.667 4.586 5.306 5.394l3.284.72c1.87.417 2.741 1.251 2.741 2.463 0 1.503-1.604 2.678-4.08 2.678-2.261 0-3.714-.973-4.169-2.88l-3.651.556C53.149 31.067 56.004 33 60.362 33c4.687 0 7.933-2.489 7.933-6 0-2.741-1.743-4.434-5.306-5.255l-3.082-.707c-2.135-.505-3.057-1.225-3.044-2.539-.013-1.491 1.604-2.552 3.752-2.552 2.35 0 3.436 1.301 3.878 2.602l3.423-.606zm13.589-4.737h-3.979V8.556H73.75v4.649h-2.842v3.032h2.842v11.458c-.013 3.524 2.678 5.23 5.659 5.167 1.2-.013 2.009-.24 2.451-.404l-.682-3.12c-.253.05-.72.164-1.326.164-1.225 0-2.324-.404-2.324-2.59V16.237h3.979v-3.032zM93.649 33c5.47 0 9.044-4.004 9.044-10.005 0-6.038-3.575-10.043-9.044-10.043s-9.045 4.005-9.045 10.043c0 6 3.575 10.005 9.045 10.005zm.013-3.171c-3.575 0-5.242-3.12-5.242-6.847 0-3.714 1.668-6.872 5.242-6.872 3.55 0 5.217 3.158 5.217 6.872 0 3.727-1.668 6.847-5.217 6.847zm13.123-20.936h1.044V5.525h1.887l.219-.004 1.819 3.373h1.212l-1.949-3.562c1.099-.375 1.613-1.272 1.613-2.417 0-1.524-.91-2.644-2.931-2.644h-2.914v8.624zm1.044-4.312V1.196h1.836c1.398 0 1.937.682 1.937 1.718s-.539 1.667-1.92 1.667h-1.853zm10.482 1.668c0 1.213-.926 1.769-1.667 1.769-.826 0-1.415-.606-1.415-1.55V2.425h-.994v4.11c0 1.651.876 2.442 2.088 2.442.977 0 1.617-.522 1.921-1.179h.067v1.095h.994V2.425h-.994v3.823zm7.395-2.375c-.311-.918-1.01-1.533-2.29-1.533-1.365 0-2.375.775-2.375 1.87 0 .893.53 1.491 1.718 1.769l1.078.253c.652.152.96.463.96.91 0 .556-.59 1.011-1.516 1.011-.813 0-1.322-.35-1.499-1.044l-.944.236c.232 1.099 1.137 1.684 2.46 1.684 1.503 0 2.526-.821 2.526-1.937 0-.901-.564-1.47-1.718-1.752l-.96-.236c-.766-.189-1.112-.446-1.112-.943 0-.556.59-.96 1.382-.96.867 0 1.225.48 1.397.926l.893-.253zm6.195 0c-.311-.918-1.01-1.533-2.29-1.533-1.365 0-2.375.775-2.375 1.87 0 .893.53 1.491 1.718 1.769l1.078.253c.652.152.96.463.96.91 0 .556-.59 1.011-1.516 1.011-.813 0-1.322-.35-1.499-1.044l-.943.236c.231 1.099 1.137 1.684 2.459 1.684 1.503 0 2.526-.821 2.526-1.937 0-.901-.564-1.47-1.718-1.752l-.96-.236c-.766-.189-1.112-.446-1.112-.943 0-.556.59-.96 1.382-.96.867 0 1.225.48 1.398.926l.892-.253zm1.614 5.019h.994V2.425h-.994v6.468zm.505-7.546c.388 0 .708-.303.708-.674S134.408 0 134.02 0s-.707.303-.707.674.32.674.707.674zm4.212 7.698c1.129 0 1.718-.606 1.92-1.027h.051v.876h.994V4.632c0-2.055-1.567-2.291-2.392-2.291-.977 0-2.089.337-2.594 1.516l.943.337c.219-.472.737-.977 1.685-.977.913 0 1.364.484 1.364 1.314v.034c0 .48-.489.438-1.668.59-1.2.156-2.509.421-2.509 1.903 0 1.263.977 1.988 2.206 1.988zm.152-.893c-.792 0-1.364-.354-1.364-1.044 0-.758.69-.994 1.465-1.095.421-.051 1.549-.168 1.718-.371v.91c0 .808-.64 1.6-1.819 1.6z"/>
</svg>
